<svg width="180" height="180" viewBox="0 0 180 180" fill="none" xmlns="http://www.w3.org/2000/svg">
<mask id="mask0" mask-type="alpha" maskUnits="userSpaceOnUse" x="0" y="0" width="180" height="180">
<path d="M3.51128 36.9966C5.39925 19.281 19.281 5.39924 36.9967 3.51128C53.5635 1.74574 73.992 0 90 0C106.008 0 126.437 1.74574 143.003 3.51128C160.719 5.39924 174.601 19.281 176.489 36.9967C178.254 53.5635 180 73.992 180 90C180 106.008 178.254 126.437 176.489 143.003C174.601 160.719 160.719 174.601 143.003 176.489C126.437 178.254 106.008 180 90 180C73.992 180 53.5635 178.254 36.9967 176.489C19.281 174.601 5.39924 160.719 3.51128 143.003C1.74574 126.437 0 106.008 0 90C0 73.992 1.74574 53.5635 3.51128 36.9966Z" fill="#304CFD"/>
</mask>
<g mask="url(#mask0)">
<path d="M3.51128 36.9966C5.39925 19.281 19.281 5.39924 36.9967 3.51128C53.5635 1.74574 73.992 0 90 0C106.008 0 126.437 1.74574 143.003 3.51128C160.719 5.39924 174.601 19.281 176.489 36.9967C178.254 53.5635 180 73.992 180 90C180 106.008 178.254 126.437 176.489 143.003C174.601 160.719 160.719 174.601 143.003 176.489C126.437 178.254 106.008 180 90 180C73.992 180 53.5635 178.254 36.9967 176.489C19.281 174.601 5.39924 160.719 3.51128 143.003C1.74574 126.437 0 106.008 0 90C0 73.992 1.74574 53.5635 3.51128 36.9966Z" fill="#C8F5F8"/>
<path d="M113.526 28.0341L95.2256 127.382L108.298 129.996C135.967 109.735 147.84 28.0341 113.526 28.0341Z" fill="#4E1E30"/>
<path d="M113.531 28.0341C108.956 25.2561 84.8089 18.2011 66.4719 28.0341C43.9227 40.1258 24.2054 83.3724 56.0143 127.382C56.0596 127.444 79.5441 124.768 79.5441 124.768L113.531 28.0341Z" fill="#4E1E30"/>
<path fill-rule="evenodd" clip-rule="evenodd" d="M69.9751 193.73H91.0435H115.619V132.488C110.323 128.373 110.306 121.647 110.306 115.459H110.158V109.081H71.9293V115.452C71.9293 121.694 71.9032 128.479 66.468 132.583V192.793C67.6287 193.126 68.7979 193.438 69.9751 193.73Z" fill="#FFD7A3"/>
<path fill-rule="evenodd" clip-rule="evenodd" d="M74.3111 162.02C79.2824 163.372 84.8231 164.151 90.6948 164.151C98.8236 164.151 106.345 162.691 112.54 160.219V191.457H74.3111V162.02Z" fill="#304CFD"/>
<path d="M110.914 143.068C111.868 143.329 112.727 143.467 113.529 143.535V131.492C108.458 127.552 108.442 121.112 108.442 115.187L108.438 115.035V108.929L79.5413 109.081L71.6981 111.695C76.927 117.578 92.9405 138.166 110.914 143.068Z" fill="#FDC88E"/>
<path d="M126.604 75.0932C126.604 96.0298 105.782 122.153 90.0023 122.153C74.2228 122.153 53.4006 96.0298 53.4006 75.0932C53.4006 54.1567 69.788 46.3345 90.0023 46.3345C110.217 46.3345 126.604 54.1567 126.604 75.0932Z" fill="#FFE1B2"/>
<path d="M95.2272 33.2627C93.7584 33.2627 88.9891 34.9131 85.0911 36.3593L84.7697 35.877C84.7697 35.877 84.2317 36.2997 83.3004 37.0324C81.1323 37.8556 79.5411 38.4913 79.5411 38.4913L80.1526 39.5108C70.2294 47.329 47.5891 65.2138 45.5533 67.25C42.939 69.8643 61.2399 136.566 61.2399 98.6231C61.2399 66.9235 78.8514 60.6456 95.2272 56.7925C102.635 55.0495 104.813 50.6922 105.685 46.3349C106.556 41.9777 97.8419 33.2627 95.2272 33.2627Z" fill="#4E1E30"/>
<path d="M103.071 48.9492C107.864 66.1606 117.451 73.9494 126.438 76.2371C131.362 77.4906 129.216 62.0214 129.216 62.0214C129.216 62.0214 122.244 44.156 121.372 43.7206C120.501 43.2847 113.529 28.0341 113.529 28.0341L97.8426 41.1063L103.071 48.9492Z" fill="#4E1E30"/>
<path d="M71.4447 128.45C68.8873 132.605 63.6732 135.526 52.9729 135.526H52.0629C35.4742 135.526 22.0259 148.974 22.0259 165.563V184.677C22.0259 189.201 25.6934 192.869 30.2178 192.869H86.2499L71.4447 128.45Z" fill="#FF965D"/>
<path d="M111.293 128.45C113.85 132.605 119.064 135.526 129.765 135.526H130.675C147.263 135.526 160.712 148.974 160.712 165.563V184.677C160.712 189.201 157.044 192.869 152.52 192.869H96.4877L111.293 128.45Z" fill="#FF965D"/>
<path d="M122.704 75.3325C126.982 74.3519 129.784 76.4469 129.784 80.5614C129.784 86.0081 124.032 99.3526 117.984 91.019C111.936 82.6855 122.704 75.3325 122.704 75.3325Z" fill="#FFE1B2"/>
</g>
</svg>
