<svg width="18" height="18" viewBox="0 0 18 18" fill="none" xmlns="http://www.w3.org/2000/svg">
<path fill-rule="evenodd" clip-rule="evenodd" d="M6.75 1.5C6.75 1.08579 6.41422 0.75 6 0.75C5.58579 0.75 5.25 1.08579 5.25 1.5V2.24999H3.75C2.50736 2.24999 1.5 3.25735 1.5 4.49999V15C1.5 16.2426 2.50736 17.25 3.75 17.25H14.25C15.4926 17.25 16.5 16.2426 16.5 15V4.49999C16.5 3.25735 15.4926 2.24999 14.25 2.24999H12.75V1.5C12.75 1.08579 12.4142 0.75 12 0.75C11.5858 0.75 11.25 1.08579 11.25 1.5V2.24999H6.75V1.5ZM3.75 3.74999H5.25V4.5C5.25 4.91421 5.58579 5.25 6 5.25C6.41422 5.25 6.75 4.91421 6.75 4.5V3.74999H11.25V4.5C11.25 4.91421 11.5858 5.25 12 5.25C12.4142 5.25 12.75 4.91421 12.75 4.5V3.74999H14.25C14.6642 3.74999 15 4.08578 15 4.49999V6.74999H3V4.49999C3 4.08578 3.33579 3.74999 3.75 3.74999ZM3 8.24999H15V15C15 15.4142 14.6642 15.75 14.25 15.75H3.75C3.33579 15.75 3 15.4142 3 15V8.24999Z" fill="black"/>
</svg>
