<svg width="18" height="18" viewBox="0 0 18 18" fill="none" xmlns="http://www.w3.org/2000/svg">
<path fill-rule="evenodd" clip-rule="evenodd" d="M0.750003 4.50919C0.749907 4.50179 0.749919 4.49439 0.75004 4.48699C0.757083 3.25372 1.76513 2.25 3 2.25H15C16.2352 2.25 17.2435 3.25428 17.25 4.48802L17.25 13.5C17.25 14.7392 16.2392 15.75 15 15.75H3C1.76079 15.75 0.750003 14.7392 0.750003 13.5V4.50919ZM2.32994 4.16546C2.45397 3.92019 2.70903 3.75 3 3.75H15C15.291 3.75 15.546 3.92019 15.6701 4.16546L15.2095 4.48789L9 8.83451L2.78945 4.48712L2.32994 4.16546ZM15.75 5.94049V13.5C15.75 13.9108 15.4108 14.25 15 14.25H3C2.58922 14.25 2.25 13.9108 2.25 13.5V5.94049L8.56991 10.3644C8.82815 10.5452 9.17186 10.5452 9.4301 10.3644L15.75 5.94049Z" fill="black"/>
</svg>
