<svg width="18" height="18" viewBox="0 0 18 18" fill="none" xmlns="http://www.w3.org/2000/svg">
<path fill-rule="evenodd" clip-rule="evenodd" d="M9 4.5C7.34315 4.5 6 5.84315 6 7.5C6 9.15685 7.34315 10.5 9 10.5C10.6569 10.5 12 9.15685 12 7.5C12 5.84315 10.6569 4.5 9 4.5ZM7.5 7.5C7.5 6.67157 8.17157 6 9 6C9.82843 6 10.5 6.67157 10.5 7.5C10.5 8.32843 9.82843 9 9 9C8.17157 9 7.5 8.32843 7.5 7.5Z" fill="black"/>
<path fill-rule="evenodd" clip-rule="evenodd" d="M8.58357 17.8738C8.58378 17.8739 8.58397 17.874 9 17.25L8.58357 17.8738C8.83549 18.0417 9.1641 18.042 9.41603 17.874L9 17.25C9.41603 17.874 9.41581 17.8742 9.41603 17.874L9.41699 17.8734L9.42357 17.869L9.44076 17.8574C9.45536 17.8474 9.47619 17.8332 9.50283 17.8147C9.5561 17.7778 9.63265 17.7241 9.72916 17.6544C9.92209 17.5151 10.1952 17.3117 10.5219 17.0516C11.174 16.5323 12.0455 15.7821 12.9195 14.8596C14.6368 13.0468 16.5 10.4265 16.5 7.5C16.5 5.51088 15.7098 3.60322 14.3033 2.1967C12.8968 0.790176 10.9891 0 9 0C7.01088 0 5.10322 0.790176 3.6967 2.1967C2.29018 3.60322 1.5 5.51088 1.5 7.5C1.5 10.4265 3.3632 13.0468 5.08054 14.8596C5.95454 15.7821 6.826 16.5323 7.47812 17.0516C7.80477 17.3117 8.07791 17.5151 8.27084 17.6544C8.36735 17.7241 8.4439 17.7778 8.49717 17.8147C8.52381 17.8332 8.54464 17.8474 8.55924 17.8574L8.57643 17.869L8.58143 17.8723L8.58357 17.8738ZM4.75736 3.25736C5.88258 2.13214 7.4087 1.5 9 1.5C10.5913 1.5 12.1174 2.13214 13.2426 3.25736C14.3679 4.38258 15 5.9087 15 7.5C15 9.82354 13.4882 12.0782 11.8305 13.8279C11.017 14.6866 10.201 15.3896 9.58749 15.8781C9.35916 16.0599 9.15973 16.2114 9 16.3294C8.84027 16.2114 8.64084 16.0599 8.41251 15.8781C7.799 15.3896 6.98296 14.6866 6.16946 13.8279C4.5118 12.0782 3 9.82354 3 7.5C3 5.9087 3.63214 4.38258 4.75736 3.25736Z" fill="black"/>
</svg>
