<svg width="18" height="18" viewBox="0 0 18 18" fill="none" xmlns="http://www.w3.org/2000/svg">
<path d="M9 12.75C8.58579 12.75 8.25 13.0858 8.25 13.5C8.25 13.9142 8.58579 14.25 9 14.25H9.00833C9.42255 14.25 9.75833 13.9142 9.75833 13.5C9.75833 13.0858 9.42255 12.75 9.00833 12.75H9Z" fill="black"/>
<path fill-rule="evenodd" clip-rule="evenodd" d="M5.25 0.75C4.00736 0.75 3 1.75736 3 3V15C3 16.2426 4.00736 17.25 5.25 17.25H12.75C13.9926 17.25 15 16.2426 15 15V3C15 1.75736 13.9926 0.75 12.75 0.75H5.25ZM4.5 3C4.5 2.58579 4.83579 2.25 5.25 2.25H12.75C13.1642 2.25 13.5 2.58579 13.5 3V15C13.5 15.4142 13.1642 15.75 12.75 15.75H5.25C4.83579 15.75 4.5 15.4142 4.5 15V3Z" fill="black"/>
</svg>
